<svg xmlns="http://www.w3.org/2000/svg" xmlns:xlink="http://www.w3.org/1999/xlink" width="76" height="76" baseProfile="full" enable-background="new 0 0 76 76" version="1.1" viewBox="0 0 76 76" xml:space="preserve"><path fill="#000" fill-opacity="1" stroke-linejoin="round" stroke-width=".2" d="M 20,17L 44.25,17L 56,28.75L 56,59L 20,59L 20,17 Z M 24,21L 24,55L 52,55L 52,33L 40,33L 40,21L 24,21 Z M 44,22.25L 44,29L 50.75,29L 44,22.25 Z M 26,23L 38,23L 38,28L 26,28L 26,23 Z M 26,30L 38,30L 38,33L 26,33L 26,30 Z M 26,35L 50,35L 50,38L 26,38L 26,35 Z M 26,40L 50,40L 50,43L 26,43L 26,40 Z M 26,45L 50,45L 50,48L 26,48L 26,45 Z M 26,50L 50,50L 50,53L 26,53L 26,50 Z"/></svg>