<svg xmlns="http://www.w3.org/2000/svg" xmlns:svg="http://www.w3.org/2000/svg" id="svg2" width="64" height="64" enable-background="new 0 0 76 76" version="1.1" viewBox="0 0 64 64" xml:space="preserve"><metadata id="metadata10"/><path id="path4" d="m 7.571429,32 0,-21.052632 6.428571,0 0,-2.6315785 6.428571,0 L 20.428571,7 43.25,7 56.428571,20.486842 56.428571,32 59,32 59,57 58.464243,57 5.535757,57 5,57 5,32 7.571429,32 z M 14,32 l 0,-17.105263 -2.571429,0 0,17.105263 L 14,32 z m 3.857143,-19.736842 0,19.736842 2.571428,0 0,-19.736842 -2.571428,0 z m 20.571428,30.263158 0,3.947368 -12.857142,0 0,-3.947368 12.857142,0 z M 52.571429,32 l 0,-6.578947 -14.142858,0 0,-14.473685 -14.142857,0 0,21.052632 28.285715,0 z m -10.285715,-20.065789 0,9.539473 9.321429,0 -9.321429,-9.539473 z m -32.142857,25.328947 0,14.473684 43.714286,0 0,-14.473684 -43.714286,0 z" style="fill:#000;fill-opacity:1;stroke-width:.2;stroke-linejoin:round"/></svg>